<?xml version="1.0" standalone="no"?>
<!DOCTYPE svg PUBLIC "-//W3C//DTD SVG 20010904//EN"
 "http://www.w3.org/TR/2001/REC-SVG-20010904/DTD/svg10.dtd">
<svg version="1.0" xmlns="http://www.w3.org/2000/svg"
 width="600.000000pt" height="600.000000pt" viewBox="0 0 600.000000 600.000000"
 preserveAspectRatio="xMidYMid meet">
<metadata>
Created by potrace 1.11, written by Peter Selinger 2001-2013
</metadata>
<g transform="translate(0.000000,600.000000) scale(0.100000,-0.100000)"
fill="#000000" stroke="none">
<path d="M66 5934 c-14 -14 -16 -120 -17 -1012 0 -548 0 -1018 1 -1044 1 -46
-4 -54 -33 -49 -5 1 -6 -3 -2 -8 3 -6 11 -8 18 -5 8 3 13 -4 13 -16 0 -11 -4
-20 -8 -20 -4 0 -4 -7 -1 -17 4 -9 2 -14 -3 -10 -6 3 -8 -8 -6 -29 3 -24 0
-34 -9 -34 -8 -1 -3 -7 11 -15 14 -8 20 -14 14 -15 -12 0 -15 -30 -2 -30 4 0
8 -801 8 -1779 0 -1604 2 -1781 16 -1795 14 -14 295 -16 2939 -16 2644 0 2925
2 2939 16 14 14 16 239 17 2327 0 1272 0 2348 1 2392 0 44 0 319 -1 612 -1
469 -3 533 -17 547 -14 14 -295 16 -2939 16 -2644 0 -2925 -2 -2939 -16z"/>
<path d="M15 3940 c3 -5 8 -10 11 -10 2 0 4 5 4 10 0 6 -5 10 -11 10 -5 0 -7
-4 -4 -10z"/>
</g>
</svg>
